<?xml version="1.0" encoding="UTF-8"?>
<svg id="Camada_2" data-name="Camada 2" xmlns="http://www.w3.org/2000/svg" xmlns:xlink="http://www.w3.org/1999/xlink" viewBox="0 0 898.56 985.14">
  <defs>
    <style>
      .cls-1 {
        fill: url(#Gradiente_sem_nome_19);
      }
    </style>
    <linearGradient id="Gradiente_sem_nome_19" data-name="Gradiente sem nome 19" x1="135.29" y1="98.02" x2="687.08" y2="649.81" gradientUnits="userSpaceOnUse">
      <stop offset="0" stop-color="#99f"/>
      <stop offset=".43" stop-color="#99f"/>
      <stop offset=".57" stop-color="#99f"/>
      <stop offset=".87" stop-color="#039"/>
      <stop offset=".99" stop-color="#123597"/>
    </linearGradient>
  </defs>
  <path class="cls-1" d="m2.9,564.39h83.35c-.58,10.72-2.81,71.37,43.12,121.58,6.71,7.33,50.59,53.71,120.67,52.59,60.45-.97,99.63-36.64,110.3-47.12,35.25-34.66,44.86-75.27,47.69-90.45.57-123.67,1.14-247.35,1.71-371.02.31-66.14,26.65-107.4,59.1-145.33C543.83-3.01,653.09.01,653.09.01c118.43,0,189.91,92.77,189.91,92.77,39.67,49.23,50.19,102.12,53.49,128.74.69,178.66,1.38,357.33,2.07,535.99-27.78.14-55.56.27-83.34.41-.97-177.82-1.94-355.64-2.9-533.46-2.18-14.4-10.8-59.15-49.34-96.06-10.46-10.02-51.32-47.93-112.79-44.88-13.32.66-62.07,4.71-104.49,44.31-43.77,40.86-51.08,91.8-52.57,104.9-.35,51.61-.71,103.21-1.06,154.82,54.66-.26,109.32-.52,163.99-.78,2.12,1.63,21.07,16.69,20.84,42.63-.23,25.37-18.6,39.97-20.84,41.68-54.66.2-109.32.41-163.99.61.18,43.38.37,86.76.55,130.14-2.77,17.87-21.34,126.45-116.93,186.37-56.6,35.48-113,37.11-126.88,36.88-27.3-.44-71.77-5.34-118.18-30.99-13.78-7.62-94.9-54.2-120.67-151.88-8.39-31.8-8.39-59.48-7.05-77.83Z"/>
</svg>